<?xml version="1.0" encoding="utf-8"?>
<!-- Generator: Adobe Illustrator 17.1.0, SVG Export Plug-In . SVG Version: 6.00 Build 0)  -->
<!DOCTYPE svg PUBLIC "-//W3C//DTD SVG 1.1//EN" "http://www.w3.org/Graphics/SVG/1.1/DTD/svg11.dtd">
<svg version="1.1" id="Layer_1" xmlns="http://www.w3.org/2000/svg" xmlns:xlink="http://www.w3.org/1999/xlink" x="0px" y="0px"
	 viewBox="0 0 131.487 295.012" enable-background="new 0 0 131.487 295.012" xml:space="preserve">
<rect x="-12.043" y="-12" fill="#640D0D" width="170" height="316.667"/>
<g>
	<path fill="#FFFFFF" d="M87.315,209.443l21.492,18.738l-41.942-91.605h3.109v-4.61h-3.931v-4.458
		c1.496-0.313,2.617-1.639,2.617-3.228c0-1.822-1.475-3.3-3.302-3.3c-1.82,0-3.298,1.479-3.298,3.3c0,1.589,1.123,2.914,2.617,3.228
		v4.458h-3.92v4.61h3.091l-41.89,91.746l21.555-18.828l21.845,18.885L87.315,209.443z M63.995,185.491l-13.449-11.724l13.449-11.539
		V185.491z M66.726,162.292l13.396,11.595L66.726,185.59V162.292z M81.894,175.965l11.342,24.768l-5.911,5.096l-19.827-17.285
		L81.894,175.965z M67.426,159.284l4.906-4.208l6.41,14.001L67.426,159.284z M66.726,156.286v-13.45l4.421,9.656L66.726,156.286z
		 M63.995,156.314l-4.411-3.817l4.411-9.661V156.314z M63.242,159.275l-11.102,9.526l6.262-13.715L63.242,159.275z M63.343,188.546
		l-19.837,17.327l-5.946-5.14l11.32-24.796L63.343,188.546z M66.726,223.591v-32.096l18.509,16.136L66.726,223.591z M89.406,207.644
		l5.015-4.325l6.628,14.477L89.406,207.644z M29.709,217.925l6.667-14.601l5.052,4.365L29.709,217.925z M63.995,191.603v31.983
		l-18.402-15.909L63.995,191.603z"/>
	<path fill="#FFFFFF" d="M1.035,269.016v-26.704h5.876c1.646,0,3.026,0.579,4.139,1.735c1.157,1.157,1.736,2.538,1.736,4.186v5.83
		c0,1.824-0.713,3.337-2.137,4.54c1.424,1.199,2.137,2.669,2.137,4.494c0,1.647-0.579,3.026-1.736,4.185
		c-1.113,1.156-2.493,1.734-4.139,1.734H1.035z M3.884,245.027v12.195h3.249c1.558-0.134,2.759-1.425,2.759-3.028v-6.142
		c0-1.646-1.335-3.025-2.982-3.025H3.884z M3.884,259.939v6.361h3.027c1.646,0,2.982-1.379,2.982-3.024v-0.312
		c0-1.602-1.202-2.893-2.759-3.024H3.884z"/>
	<path fill="#FFFFFF" d="M16.613,269.016v-8.412v-18.292h5.875c1.647,0,3.027,0.579,4.14,1.735c1.157,1.157,1.736,2.538,1.736,4.186
		v6.452c0,1.824-0.712,3.339-2.136,4.54c1.424,1.202,2.136,2.715,2.136,4.54v5.251H25.47v-5.428c0-1.648-1.335-2.984-2.982-2.984
		h-3.026v8.412H16.613z M19.461,245.027v12.817h3.026c1.647,0,2.982-1.336,2.982-2.982v-6.81c0-1.646-1.335-3.025-2.982-3.025
		H19.461z"/>
	<path fill="#FFFFFF" d="M32.191,247.964c0-1.646,0.578-3.026,1.691-4.14c1.157-1.156,2.537-1.735,4.184-1.735
		c1.646,0,3.026,0.579,4.139,1.735c1.157,1.113,1.736,2.493,1.736,4.14v15.401c0,1.645-0.579,3.025-1.736,4.182
		c-1.112,1.113-2.493,1.691-4.139,1.691c-1.647,0-3.027-0.578-4.184-1.691c-1.113-1.156-1.691-2.537-1.691-4.182V247.964z
		 M35.04,263.542c0,1.648,1.38,2.98,3.027,2.98c1.646,0,2.981-1.333,2.981-2.98v-15.755c0-1.648-1.335-2.982-2.981-2.982
		c-1.647,0-3.027,1.334-3.027,2.982V263.542z"/>
	<path fill="#FFFFFF" d="M54.222,242.311l5.119,26.704h-2.714l-1.024-5.428h-5.697l-1.023,5.428h-2.715l5.163-26.704H54.222z
		 M52.754,248.678l-2.314,12.148h4.629L52.754,248.678z"/>
	<path fill="#FFFFFF" d="M62.278,269.016v-26.704h5.876c1.647,0,3.025,0.579,4.139,1.735c1.158,1.157,1.737,2.538,1.737,4.186
		v14.864c0,1.647-0.579,3.026-1.737,4.185c-1.113,1.156-2.491,1.734-4.139,1.734H62.278z M65.126,245.027V266.3h3.027
		c1.647,0,2.983-1.379,2.983-3.024v-15.223c0-1.646-1.336-3.025-2.983-3.025H65.126z"/>
	<path fill="#FFFFFF" d="M80.705,263.542c0,1.648,1.38,2.98,3.025,2.98c1.647,0,2.984-1.333,2.984-2.98v-2.493h2.892v2.316
		c0,1.645-0.579,3.025-1.734,4.182c-1.113,1.113-2.494,1.691-4.142,1.691c-1.646,0-3.025-0.578-4.181-1.691
		c-1.113-1.156-1.692-2.537-1.692-4.182v-15.401c0-1.646,0.579-3.026,1.692-4.14c1.155-1.156,2.535-1.735,4.181-1.735
		c1.647,0,3.028,0.579,4.142,1.735c1.155,1.113,1.734,2.493,1.734,4.14v2.315h-2.892v-2.492c0-1.648-1.337-2.982-2.984-2.982
		c-1.646,0-3.025,1.334-3.025,2.982V263.542z"/>
	<path fill="#FFFFFF" d="M99.888,242.311l5.116,26.704h-2.714l-1.024-5.428h-5.697l-1.022,5.428H91.83l5.163-26.704H99.888z
		 M98.418,248.678l-2.313,12.148h4.627L98.418,248.678z"/>
	<path fill="#FFFFFF" d="M107.008,261.272h2.893v2.27c0,1.648,1.381,2.98,3.025,2.98c1.649,0,2.984-1.333,2.984-2.98v-0.177
		c0-0.579-0.134-1.07-0.401-1.515l-7.075-10.191c-0.936-1.024-1.426-2.27-1.426-3.695c0-1.646,0.579-3.026,1.737-4.14
		c1.155-1.156,2.536-1.735,4.181-1.735c1.649,0,3.028,0.579,4.142,1.735c1.155,1.113,1.734,2.493,1.734,4.14v2.093h-2.892v-2.27
		c0-1.648-1.336-2.982-2.984-2.982c-1.645,0-3.025,1.334-3.025,2.982v0.177c0,0.623,0.178,1.159,0.534,1.647l7.12,10.19
		c0.847,1.024,1.247,2.182,1.247,3.563c0,1.645-0.579,3.025-1.734,4.182c-1.113,1.113-2.493,1.691-4.142,1.691
		c-1.645,0-3.025-0.578-4.181-1.691c-1.158-1.156-1.737-2.537-1.737-4.182V261.272z"/>
	<path fill="#FFFFFF" d="M120.851,245.027v-2.716h10.636v2.716h-3.869v23.988h-2.894v-23.988H120.851z"/>
	<path fill="#FFFFFF" d="M2.287,291.152c0,0.942,0.772,1.713,1.716,1.713c0.943,0,1.716-0.771,1.716-1.713v-1.659h2.287v1.515
		c0,1.115-0.4,2.06-1.172,2.831c-0.773,0.773-1.716,1.173-2.831,1.173s-2.059-0.399-2.831-1.173C0.399,293.067,0,292.123,0,291.008
		v-9.493c0-1.114,0.399-2.059,1.172-2.832c0.772-0.77,1.716-1.17,2.831-1.17s2.059,0.399,2.831,1.17
		c0.772,0.773,1.172,1.718,1.172,2.832v1.544H5.719v-1.686c0-0.942-0.772-1.716-1.716-1.716c-0.944,0-1.716,0.773-1.716,1.716
		V291.152z"/>
	<path fill="#FFFFFF" d="M10.009,281.515c0-1.114,0.4-2.059,1.172-2.832c0.772-0.77,1.716-1.17,2.831-1.17
		c1.115,0,2.059,0.399,2.831,1.17c0.772,0.773,1.172,1.718,1.172,2.832v9.493c0,1.115-0.4,2.06-1.172,2.831
		c-0.772,0.773-1.716,1.173-2.831,1.173c-1.115,0-2.059-0.399-2.831-1.173c-0.772-0.771-1.172-1.716-1.172-2.831V281.515z
		 M12.297,291.152c0,0.942,0.773,1.713,1.715,1.713c0.943,0,1.716-0.771,1.716-1.713v-9.78c0-0.942-0.773-1.716-1.716-1.716
		c-0.943,0-1.715,0.773-1.715,1.716V291.152z"/>
	<path fill="#FFFFFF" d="M20.019,294.84v-17.155h6.862v2.143h-4.575v7.664h3.861v2.144h-3.861v5.204H20.019z"/>
	<path fill="#FFFFFF" d="M27.884,294.84v-17.155h6.862v2.143h-4.575v7.664h3.86v2.144h-3.86v5.204H27.884z"/>
	<path fill="#FFFFFF" d="M35.748,294.84v-17.155h6.863v2.143h-4.575v7.664h3.86v2.144h-3.86v3.061h4.575v2.144H35.748z"/>
	<path fill="#FFFFFF" d="M44.328,294.84v-17.155h6.862v2.143h-4.575v7.664h3.861v2.144h-3.861v3.061h4.575v2.144H44.328z"/>
	<path fill="#FFFFFF" d="M58.627,294.84v-17.155h4.003c1.115,0,2.058,0.399,2.83,1.17c0.773,0.773,1.172,1.716,1.172,2.832v3.944
		c0,1.146-0.429,2.118-1.285,2.947c0.856,0.8,1.285,1.772,1.285,2.915v3.347h-2.287v-3.488c0-0.942-0.772-1.716-1.715-1.716h-1.716
		v5.204H58.627z M60.915,279.828v7.664h1.716c0.943,0,1.715-0.773,1.715-1.716v-4.232c0-0.945-0.772-1.716-1.715-1.716H60.915z"/>
	<path fill="#FFFFFF" d="M68.636,281.515c0-1.114,0.4-2.059,1.173-2.832c0.771-0.77,1.717-1.17,2.83-1.17
		c1.115,0,2.059,0.399,2.833,1.17c0.77,0.773,1.17,1.718,1.17,2.832v9.493c0,1.115-0.4,2.06-1.17,2.831
		c-0.774,0.773-1.718,1.173-2.833,1.173c-1.113,0-2.059-0.399-2.83-1.173c-0.772-0.771-1.173-1.716-1.173-2.831V281.515z
		 M70.924,291.152c0,0.942,0.773,1.713,1.715,1.713c0.945,0,1.714-0.771,1.714-1.713v-9.78c0-0.942-0.769-1.716-1.714-1.716
		c-0.942,0-1.715,0.773-1.715,1.716V291.152z"/>
	<path fill="#FFFFFF" d="M83.22,277.685l3.348,17.155H84.42l-0.628-3.288H80.39l-0.631,3.288h-2.143l3.315-17.155H83.22z
		 M82.078,282.63l-1.287,6.778h2.573L82.078,282.63z"/>
	<path fill="#FFFFFF" d="M87.397,289.693h2.286v1.459c0,0.942,0.774,1.713,1.717,1.713s1.717-0.771,1.717-1.713v-0.145
		c0-0.343-0.087-0.629-0.26-0.857l-4.461-6.033c-0.655-0.715-0.999-1.602-0.999-2.603c0-1.114,0.4-2.059,1.173-2.832
		c0.771-0.77,1.714-1.17,2.83-1.17c1.115,0,2.059,0.399,2.83,1.17c0.774,0.773,1.173,1.718,1.173,2.832v1.316h-2.286v-1.459
		c0-0.942-0.774-1.716-1.717-1.716s-1.717,0.773-1.717,1.716v0.142c0,0.343,0.086,0.659,0.287,0.945l4.46,6.032
		c0.658,0.744,0.973,1.572,0.973,2.516c0,1.115-0.398,2.06-1.173,2.831c-0.771,0.773-1.715,1.173-2.83,1.173
		c-1.116,0-2.059-0.399-2.83-1.173c-0.772-0.771-1.173-1.716-1.173-2.831V289.693z"/>
	<path fill="#FFFFFF" d="M96.405,279.828v-2.143h7.15v2.143h-2.43v15.012h-2.289v-15.012H96.405z"/>
	<path fill="#FFFFFF" d="M104.698,294.84v-17.155h6.863v2.143h-4.574v7.664h3.859v2.144h-3.859v3.061h4.574v2.144H104.698z"/>
	<path fill="#FFFFFF" d="M113.278,294.84v-17.155h4.003c1.116,0,2.061,0.399,2.83,1.17c0.774,0.773,1.173,1.716,1.173,2.832v3.944
		c0,1.146-0.428,2.118-1.286,2.947c0.858,0.8,1.286,1.772,1.286,2.915v3.347h-2.286v-3.488c0-0.942-0.771-1.716-1.717-1.716h-1.717
		v5.204H113.278z M115.564,279.828v7.664h1.717c0.945,0,1.717-0.773,1.717-1.716v-4.232c0-0.945-0.771-1.716-1.717-1.716H115.564z"
		/>
	<path fill="#FFFFFF" d="M123.144,289.693h2.289v1.459c0,0.942,0.771,1.713,1.714,1.713c0.945,0,1.718-0.771,1.718-1.713v-0.145
		c0-0.343-0.087-0.629-0.258-0.857l-4.461-6.033c-0.657-0.715-1.002-1.602-1.002-2.603c0-1.114,0.401-2.059,1.173-2.832
		c0.774-0.77,1.717-1.17,2.83-1.17c1.116,0,2.062,0.399,2.833,1.17c0.772,0.773,1.173,1.718,1.173,2.832v1.316h-2.288v-1.459
		c0-0.942-0.772-1.716-1.718-1.716c-0.942,0-1.714,0.773-1.714,1.716v0.142c0,0.343,0.084,0.659,0.287,0.945l4.458,6.032
		c0.658,0.744,0.975,1.572,0.975,2.516c0,1.115-0.4,2.06-1.173,2.831c-0.771,0.773-1.717,1.173-2.833,1.173
		c-1.113,0-2.056-0.399-2.83-1.173c-0.771-0.771-1.173-1.716-1.173-2.831V289.693z"/>
</g>
<circle class="circle-1" fill="#FFFFFF" cx="65.383" cy="124.333" r="40"/>
<circle class="circle-2" fill="#FFFFFF" cx="65.383" cy="124.333" r="1.144"/>
<circle class="circle-3" fill="#FFFFFF" cx="65.383" cy="124.333" r="1.276"/>
</svg>
